<?xml version="1.0" encoding="utf-8"?>
<!-- Generator: Adobe Illustrator 23.0.3, SVG Export Plug-In . SVG Version: 6.00 Build 0)  -->
<svg version="1.1" id="Layer_1" xmlns="http://www.w3.org/2000/svg" xmlns:xlink="http://www.w3.org/1999/xlink" x="0px" y="0px"
	 viewBox="0 0 500 500" style="enable-background:new 0 0 500 500;" xml:space="preserve">
<style type="text/css">
	.st0{fill:#AAAAAA;}
	.st1{fill:#FFFFFF;}
</style>
<g>
	<g>
		<polygon class="st0" points="249.27,22.84 323.04,172.32 488,196.29 368.63,312.64 396.81,476.93 249.27,399.37 101.72,476.93 
			129.9,312.64 10.54,196.29 175.49,172.32 		"/>
	</g>
	<g>
		<path class="st1" d="M299.83,191.05v0.09l-91.26,18.59c-0.71,0.15-1.23,0.77-1.23,1.5v12v12.18v90.84
			c-6.67-3.32-16.87-2.72-26.47,2.28c-13.34,6.94-20.46,19.68-15.89,28.46c4.57,8.78,19.08,10.27,32.42,3.34
			c11.14-5.79,18.44-15.65,18.39-23.82V234.81c0-0.64,0.45-1.19,1.08-1.32l81.33-16.5c0.83-0.17,1.62,0.47,1.62,1.32v84.84
			c-6.67-3.32-16.87-2.72-26.47,2.28c-13.34,6.94-20.46,19.68-15.89,28.46c4.57,8.78,19.08,10.27,32.42,3.34
			c11.14-5.79,17.9-15.62,17.19-23.82h0.07V191.51c0-0.96-0.87-1.68-1.82-1.5L299.83,191.05z"/>
	</g>
</g>
</svg>
