<?xml version="1.0" encoding="utf-8"?>
<!-- Generator: Adobe Illustrator 23.0.3, SVG Export Plug-In . SVG Version: 6.00 Build 0)  -->
<svg version="1.1" id="Layer_1" xmlns="http://www.w3.org/2000/svg" xmlns:xlink="http://www.w3.org/1999/xlink" x="0px" y="0px"
	 viewBox="0 0 1000 100" style="enable-background:new 0 0 1000 100;" xml:space="preserve">
<style type="text/css">
	.st0{fill:#FFFFFF;}
</style>
<g>
	<path class="st0" d="M76.91,73.21h-1.63V49.52c0-10.43-4.96-14.58-12.21-14.58c-5.77,0-12.81,3.18-12.81,14.5v23.76h-1.63V49.45
		c0-10.51-5.03-14.5-12.21-14.5c-5.77,0-12.8,3.18-12.8,14.5v23.76H22V34.35h1.63v8.44c1.41-6.14,6.88-9.25,13.02-9.25
		c7.33,0,11.99,4.29,12.95,10.96c1.48-7.55,7.1-10.96,13.69-10.96c7.92,0,13.62,4.52,13.62,15.69V73.21z"/>
	<path class="st0" d="M98.04,73.06l-14.28-38.7h1.63l13.47,36.63l13.54-36.63h1.63L94.56,86.9h-1.63L98.04,73.06z"/>
	<path class="st0" d="M197.01,73.21h-1.63V49.52c0-10.43-4.96-14.58-12.21-14.58c-5.77,0-12.81,3.18-12.81,14.5v23.76h-1.63V49.45
		c0-10.51-5.03-14.5-12.21-14.5c-5.77,0-12.8,3.18-12.8,14.5v23.76h-1.63V34.35h1.63v8.44c1.41-6.14,6.88-9.25,13.02-9.25
		c7.33,0,11.99,4.29,12.95,10.96c1.48-7.55,7.1-10.96,13.69-10.96c7.92,0,13.62,4.52,13.62,15.69V73.21z"/>
	<path class="st0" d="M211.33,22.36c0,0.74-0.67,1.4-1.33,1.4c-0.89,0-1.48-0.67-1.48-1.4c0-0.82,0.59-1.41,1.48-1.41
		C210.66,20.96,211.33,21.55,211.33,22.36z M210.66,73.21h-1.63V34.35h1.63V73.21z"/>
	<path class="st0" d="M249.3,69.65c-2.81,2.66-6.81,4.37-11.69,4.37c-7.99,0-15.69-6.36-15.69-20.2c0-13.62,7.92-20.28,15.84-20.28
		c5.47,0,8.66,1.78,11.39,4.07l-0.89,1.18c-2.74-2.29-5.55-3.85-10.58-3.85c-7.25,0-14.13,6.37-14.13,18.73
		c0,12.65,6.66,18.95,14.13,18.95c4.44,0,8.07-1.55,10.73-4L249.3,69.65z"/>
	<path class="st0" d="M289.29,73.21h-1.63V49.52c0-10.29-4.88-14.58-12.58-14.58c-6,0-13.17,3.26-13.17,14.5v23.76h-1.63V20.14
		l1.63-0.89v23.53c1.48-6.14,6.88-9.25,13.47-9.25c8.29,0,13.91,4.52,13.91,15.69V73.21z"/>
	<path class="st0" d="M304.71,22.36c0,0.74-0.67,1.4-1.33,1.4c-0.89,0-1.48-0.67-1.48-1.4c0-0.82,0.59-1.41,1.48-1.41
		C304.04,20.96,304.71,21.55,304.71,22.36z M304.04,73.21h-1.63V34.35h1.63V73.21z"/>
	<path class="st0" d="M345.05,70.1c0,12.29-5.47,17.32-19.68,17.47l-0.67-1.55c13.76-0.15,18.72-4.29,18.72-15.84v-3.7
		c-3.18,4.29-7.7,7.55-13.47,7.55c-8.66,0-14.65-5.92-14.65-20.05c0-14.21,6.07-20.43,14.8-20.43c5.55,0,10.14,3.11,13.32,7.4v-6.59
		h1.63V70.1z M343.42,64.4V43.23c-2.96-4.74-7.85-8.29-13.17-8.29c-8.29,0-13.32,5.85-13.32,19.02c0,12.95,5.18,18.65,13.32,18.65
		C335.5,72.61,340.31,69.21,343.42,64.4z"/>
	<path class="st0" d="M384.36,73.21h-1.63v-6.59c-3.11,4.22-7.92,7.4-13.84,7.4c-6.59,0-13.25-2.81-13.25-11.62
		c0-8.51,6.51-12.65,14.43-12.65c5.25,0,9.62,1.55,12.65,3.25v-6.44c0-8.66-3.55-11.55-11.32-11.55c-4.66,0-8.14,1.33-11.55,3.03
		l-0.59-1.41c3.4-1.7,7.26-3.11,12.21-3.11c8.51,0,12.88,3.26,12.88,12.81V73.21z M382.74,64.47v-9.99
		c-3.26-1.85-7.4-3.33-12.73-3.33c-7.18,0-12.73,3.7-12.73,11.18c0,7.77,5.77,10.29,11.84,10.29
		C374.37,72.61,379.85,69.43,382.74,64.47z"/>
	<path class="st0" d="M426.12,73.21h-1.63V49.52c0-10.29-4.88-14.58-12.58-14.58c-6,0-13.17,3.26-13.17,14.5v23.76h-1.63V34.35h1.63
		v8.44c1.48-6.14,6.88-9.25,13.47-9.25c8.29,0,13.91,4.52,13.91,15.69V73.21z"/>
	<path class="st0" d="M511.93,73.21h-1.63V49.52c0-10.43-4.96-14.58-12.21-14.58c-5.77,0-12.81,3.18-12.81,14.5v23.76h-1.63V49.45
		c0-10.51-5.03-14.5-12.21-14.5c-5.77,0-12.8,3.18-12.8,14.5v23.76h-1.63V34.35h1.63v8.44c1.41-6.14,6.88-9.25,13.02-9.25
		c7.33,0,11.99,4.29,12.95,10.96c1.48-7.55,7.1-10.96,13.69-10.96c7.92,0,13.62,4.52,13.62,15.69V73.21z"/>
	<path class="st0" d="M523.29,34.35h1.63v23.68c0,10.29,4.88,14.58,12.58,14.58c6,0,13.17-3.26,13.17-14.51V34.35h1.63v38.85h-1.63
		v-8.44c-1.48,6.14-6.88,9.25-13.47,9.25c-8.29,0-13.91-4.51-13.91-15.69V34.35z"/>
	<path class="st0" d="M586.44,64.1c0,6.36-4.81,9.92-12.06,9.92c-5.03,0-8.81-1.7-11.91-4.14l0.81-1.18
		c3.03,2.29,6.51,3.92,11.1,3.92c6.59,0,10.51-3.11,10.51-8.51c0-4.66-2.15-6.96-10.29-10.36c-8.22-3.4-10.95-5.63-10.95-11.32
		c0-4.96,3.92-8.88,10.73-8.88c5.4,0,8.95,1.63,11.32,3.56l-0.89,1.18c-2.37-1.92-5.7-3.33-10.51-3.33c-5.7,0-9.11,3.4-9.11,7.4
		c0,4.81,2.3,6.66,10.14,9.99C583.78,55.96,586.44,58.18,586.44,64.1z"/>
	<path class="st0" d="M600.22,22.36c0,0.74-0.67,1.4-1.33,1.4c-0.89,0-1.48-0.67-1.48-1.4c0-0.82,0.59-1.41,1.48-1.41
		C599.56,20.96,600.22,21.55,600.22,22.36z M599.56,73.21h-1.63V34.35h1.63V73.21z"/>
	<path class="st0" d="M638.2,69.65c-2.81,2.66-6.81,4.37-11.69,4.37c-7.99,0-15.69-6.36-15.69-20.2c0-13.62,7.92-20.28,15.84-20.28
		c5.47,0,8.66,1.78,11.39,4.07l-0.89,1.18c-2.74-2.29-5.55-3.85-10.58-3.85c-7.25,0-14.13,6.37-14.13,18.73
		c0,12.65,6.66,18.95,14.13,18.95c4.44,0,8.07-1.55,10.73-4L638.2,69.65z"/>
	<path class="st0" d="M667.31,20.14l1.63-0.89v21.83c3.18-4.29,7.7-7.55,13.47-7.55c8.66,0,14.65,5.92,14.65,20.06
		c0,14.21-6.07,20.42-14.8,20.42c-5.55,0-10.14-3.11-13.32-7.4v6.59h-1.63V20.14z M668.94,43.16v21.16
		c2.96,4.74,7.85,8.29,13.17,8.29c8.29,0,13.32-5.85,13.32-19.02c0-12.95-5.18-18.65-13.32-18.65
		C676.86,34.94,672.05,38.35,668.94,43.16z"/>
	<path class="st0" d="M707.67,34.35h1.63v23.68c0,10.29,4.88,14.58,12.58,14.58c6,0,13.17-3.26,13.17-14.51V34.35h1.63v38.85h-1.63
		v-8.44c-1.48,6.14-6.88,9.25-13.47,9.25c-8.29,0-13.91-4.51-13.91-15.69V34.35z"/>
	<path class="st0" d="M774.96,69.65c-2.81,2.66-6.81,4.37-11.69,4.37c-7.99,0-15.69-6.36-15.69-20.2c0-13.62,7.92-20.28,15.84-20.28
		c5.47,0,8.66,1.78,11.39,4.07l-0.89,1.18c-2.74-2.29-5.55-3.85-10.58-3.85c-7.25,0-14.13,6.37-14.13,18.73
		c0,12.65,6.66,18.95,14.13,18.95c4.44,0,8.07-1.55,10.73-4L774.96,69.65z"/>
	<path class="st0" d="M812.13,73.21h-1.7l-13.91-22.35l-8.95,11.77v10.58h-1.63V20.14l1.63-0.89V60.4l19.83-26.05h1.77L797.48,49.6
		L812.13,73.21z"/>
	<path class="st0" d="M848.49,53.22c0,0.3,0,0.52-0.07,0.81h-28.94c0.15,11.92,6.07,18.58,13.84,18.58c5.48,0,8.73-1.26,12.29-3.33
		l0.67,1.18c-3.78,2.22-7.33,3.55-13.1,3.55c-7.99,0-15.25-6.73-15.25-20.28c0-12.88,6.88-20.2,15.39-20.2
		C842.12,33.54,848.49,40.64,848.49,53.22z M846.94,52.71c-0.22-11.55-5.77-17.76-13.62-17.76c-7.48,0-13.54,6.22-13.84,17.76
		H846.94z"/>
	<path class="st0" d="M873.15,70.84L873,72.39c-1.85,0.96-3.92,1.4-6.66,1.4c-3.92,0-5.92-2.37-5.92-6.66V35.69h-5.18v-1.33h5.18
		V20.14l1.63-0.89v15.1h10.66v1.33h-10.66v31.3c0,3.4,1.55,5.33,4.81,5.33C869.3,72.32,871.3,71.73,873.15,70.84z"/>
	<path class="st0" d="M903.82,73.21h-1.63V20.14l1.63-0.89V73.21z"/>
	<path class="st0" d="M919.88,22.36c0,0.74-0.67,1.4-1.33,1.4c-0.89,0-1.48-0.67-1.48-1.4c0-0.82,0.59-1.41,1.48-1.41
		C919.22,20.96,919.88,21.55,919.88,22.36z M919.22,73.21h-1.63V34.35h1.63V73.21z"/>
	<path class="st0" d="M953.71,64.1c0,6.36-4.81,9.92-12.06,9.92c-5.03,0-8.81-1.7-11.91-4.14l0.81-1.18
		c3.03,2.29,6.51,3.92,11.1,3.92c6.59,0,10.51-3.11,10.51-8.51c0-4.66-2.15-6.96-10.29-10.36c-8.22-3.4-10.95-5.63-10.95-11.32
		c0-4.96,3.92-8.88,10.73-8.88c5.4,0,8.95,1.63,11.32,3.56l-0.89,1.18c-2.37-1.92-5.7-3.33-10.51-3.33c-5.7,0-9.11,3.4-9.11,7.4
		c0,4.81,2.3,6.66,10.14,9.99C951.05,55.96,953.71,58.18,953.71,64.1z"/>
	<path class="st0" d="M978,70.84l-0.15,1.55c-1.85,0.96-3.92,1.4-6.66,1.4c-3.92,0-5.92-2.37-5.92-6.66V35.69h-5.18v-1.33h5.18
		V20.14l1.63-0.89v15.1h10.66v1.33H966.9v31.3c0,3.4,1.55,5.33,4.81,5.33C974.15,72.32,976.15,71.73,978,70.84z"/>
</g>
</svg>
