<?xml version="1.0" encoding="utf-8"?>
<!-- Generator: Adobe Illustrator 23.0.3, SVG Export Plug-In . SVG Version: 6.00 Build 0)  -->
<svg version="1.1" id="Layer_1" xmlns="http://www.w3.org/2000/svg" xmlns:xlink="http://www.w3.org/1999/xlink" x="0px" y="0px"
	 viewBox="0 0 1000 200" style="enable-background:new 0 0 1000 200;" xml:space="preserve">
<style type="text/css">
	.st0{fill:#FFFFFF;}
</style>
<g>
	<path class="st0" d="M118.37,134.11H87.14V101.3c0-2.32,0.24-7.08,0.36-10.25c-1.1,5.98-3.29,14.52-5.36,21.35l-6.47,21.71H64.7
		l-6.47-21.71c-2.07-6.83-4.27-15.37-5.36-21.35c0.12,3.17,0.36,7.93,0.36,10.25v32.81H22V48.72h38.18l4.51,15
		c2.81,9.4,5.13,16.96,5.61,23.06c0.49-6.1,2.81-13.79,5.61-23.06l4.51-15h37.94V134.11z"/>
	<path class="st0" d="M159.91,53.85c0,8.42-6.83,12.32-17.2,12.32c-10.37,0-17.2-3.9-17.2-12.32c0-7.44,6.83-11.83,17.2-11.83
		C153.07,42.01,159.91,46.41,159.91,53.85z M158.57,134.11h-31.72V70.07h31.72V134.11z"/>
	<path class="st0" d="M230.8,93.12l-26.11,6.22c-0.85-7.32-2.44-9.52-5.49-9.52c-3.17,0-5.24,3.05-5.24,12.56
		c0,9.27,1.95,11.95,5.61,11.95c2.31,0,4.88-1.95,5.97-8.17l24.89,6.95c-4.27,13.66-14.88,22.32-30.37,22.32
		c-21.11,0-35.62-10.13-35.62-33.42c0-22.44,13.66-33.3,35.38-33.3C216.89,68.73,226.77,77.63,230.8,93.12z"/>
	<path class="st0" d="M308.3,134.11h-31.72V99.1c0-4.03-1.22-6.1-4.51-6.1c-3.3,0-4.51,2.08-4.51,6.1v35.01h-31.72V54.94
		l31.72-10.49v29.88c5.36-3.17,10.12-5.61,18.66-5.61c12.32,0,22.08,7.07,22.08,23.78V134.11z"/>
	<path class="st0" d="M348.6,53.85c0,8.42-6.83,12.32-17.2,12.32c-10.37,0-17.2-3.9-17.2-12.32c0-7.44,6.83-11.83,17.2-11.83
		C341.76,42.01,348.6,46.41,348.6,53.85z M347.26,134.11h-31.72V70.07h31.72V134.11z"/>
	<path class="st0" d="M423.52,118.25c0,26.47-13.18,35.62-43.79,39.4l-10.86-15.25c20.37-2.56,23.55-6.95,23.55-12.56v-0.61
		c-4.51,4.03-8.42,6.22-15.61,6.22c-12.2,0-23.55-10-23.55-33.3c0-23.55,11.34-33.42,23.55-33.42c7.2,0,10.73,2.2,15,5.61v-4.27
		h31.72V118.25z M391.8,114.11V90.08c-0.85-0.49-1.58-0.61-2.81-0.61c-3.54,0-6.22,2.69-6.22,12.69c0,9.76,2.69,12.56,6.22,12.56
		C390.22,114.72,390.95,114.59,391.8,114.11z"/>
	<path class="st0" d="M495.28,134.11h-29.03v-4.27c-5.49,3.17-11.34,5.61-17.07,5.61c-13.06,0-20.62-8.17-20.62-21.23
		c0-13.29,10.25-20.37,22.57-20.37c6.22,0,10.49,0.74,15.12,2.44v-0.98c0-5.86-2.2-7.44-7.68-7.44c-7.08,0-12.68,0.85-20.37,3.78
		l-5-17.81c8.29-3.17,19.89-5.12,31.84-5.12c20.86,0,30.25,6.1,30.25,25.37V134.11z M466.25,117.77v-8.54
		c-1.7-0.73-3.54-1.1-5.24-1.1c-2.93,0-4.63,1.83-4.63,5.37s1.71,5.37,4.63,5.37C462.72,118.87,464.55,118.5,466.25,117.77z"/>
	<path class="st0" d="M574.98,134.11h-31.72V99.1c0-4.03-1.22-6.1-4.51-6.1c-3.3,0-4.51,2.08-4.51,6.1v35.01h-31.72V70.07h31.72
		v4.27c5.36-3.17,10.12-5.61,18.66-5.61c12.32,0,22.08,7.07,22.08,23.78V134.11z"/>
	<path class="st0" d="M722.16,134.11h-31.23V101.3c0-2.32,0.24-7.08,0.36-10.25c-1.1,5.98-3.29,14.52-5.36,21.35l-6.47,21.71h-10.98
		l-6.47-21.71c-2.07-6.83-4.27-15.37-5.36-21.35c0.12,3.17,0.36,7.93,0.36,10.25v32.81h-31.23V48.72h38.18l4.51,15
		c2.81,9.4,5.13,16.96,5.61,23.06c0.49-6.1,2.81-13.79,5.61-23.06l4.51-15h37.94V134.11z"/>
	<path class="st0" d="M802.73,134.11h-31.72v-4.27c-5.37,3.17-10.13,5.61-18.66,5.61c-12.32,0-22.08-7.07-22.08-23.78v-41.6h31.72
		v35.01c0,4.03,1.22,6.1,4.51,6.1c3.29,0,4.51-2.07,4.51-6.1V70.07h31.72V134.11z"/>
	<path class="st0" d="M868.16,113.13c0,14.76-11.83,22.32-30.5,22.32c-11.59,0-18.66-0.97-29.88-4.02l5.86-19.27
		c7.32,2.44,15.37,4.27,23.54,4.27c2.32,0,2.93-0.61,2.93-1.46c0-0.98-0.61-1.35-2.56-1.83c-21.84-5.49-28.06-9.27-28.06-22.32
		c0-12.93,10.01-22.08,30.38-22.08c10.98,0,19.03,1.34,27.44,4.02l-7.08,19.64c-8.05-3.42-14.15-4.64-20.62-4.64
		c-1.46,0-2.07,0.61-2.07,1.47c0,1.1,0.85,1.47,2.44,1.83C861.94,96.42,868.16,100.69,868.16,113.13z"/>
	<path class="st0" d="M907.11,53.85c0,8.42-6.83,12.32-17.2,12.32c-10.37,0-17.2-3.9-17.2-12.32c0-7.44,6.83-11.83,17.2-11.83
		C900.27,42.01,907.11,46.41,907.11,53.85z M905.76,134.11h-31.72V70.07h31.72V134.11z"/>
	<path class="st0" d="M978,93.12l-26.11,6.22c-0.85-7.32-2.44-9.52-5.49-9.52c-3.17,0-5.24,3.05-5.24,12.56
		c0,9.27,1.95,11.95,5.61,11.95c2.31,0,4.88-1.95,5.97-8.17l24.89,6.95c-4.27,13.66-14.88,22.32-30.37,22.32
		c-21.11,0-35.62-10.13-35.62-33.42c0-22.44,13.66-33.3,35.38-33.3C964.09,68.73,973.97,77.63,978,93.12z"/>
</g>
</svg>
