<?xml version="1.0" encoding="utf-8"?>
<!-- Generator: Adobe Illustrator 23.0.3, SVG Export Plug-In . SVG Version: 6.00 Build 0)  -->
<svg version="1.1" id="Layer_1" xmlns="http://www.w3.org/2000/svg" xmlns:xlink="http://www.w3.org/1999/xlink" x="0px" y="0px"
	 viewBox="0 0 11 8" style="enable-background:new 0 0 11 8;" xml:space="preserve">
<style type="text/css">
	.st0{fill:#FFFFFF;}
</style>
<g id="XMLID_5_">
	<path id="XMLID_894_" class="st0" d="M9.93,3.9C9.44,3.77,8.99,3.3,8.79,2.65C8.59,2,8.69,1.35,9.02,0.98L8.79,0.22L1,2.62
		l0.24,0.76c0.48,0.13,0.94,0.6,1.14,1.25c0.2,0.65,0.09,1.3-0.23,1.67l0.24,0.76l7.79-2.41L9.93,3.9z M7.81,2.16l-0.3,0.09
		L7.37,1.8l0.3-0.09L7.81,2.16z M7.39,0.8l0.14,0.45l-0.3,0.09L7.09,0.89L7.39,0.8z M7.12,5.01L3.97,5.99
		C3.91,6.01,3.85,6.01,3.78,6.01c-0.27,0-0.52-0.17-0.6-0.45L2.49,3.32C2.44,3.16,2.45,2.99,2.53,2.84C2.61,2.69,2.74,2.58,2.9,2.53
		l3.15-0.97C6.22,1.51,6.39,1.52,6.54,1.6c0.15,0.08,0.26,0.21,0.31,0.37l0.69,2.25C7.64,4.55,7.46,4.91,7.12,5.01z M7.65,2.71
		l0.3-0.09l0.14,0.45l-0.3,0.09L7.65,2.71z M7.93,3.62l0.3-0.09l0.14,0.45l-0.3,0.09L7.93,3.62z M8.35,4.98L8.21,4.52l0.3-0.09
		l0.14,0.45L8.35,4.98z"/>
	<path id="XMLID_902_" class="st0" d="M6.57,2.06C6.54,1.97,6.48,1.9,6.4,1.86C6.35,1.83,6.3,1.82,6.24,1.82
		c-0.03,0-0.07,0.01-0.1,0.02L2.99,2.81C2.9,2.84,2.83,2.9,2.79,2.98C2.75,3.06,2.74,3.15,2.76,3.24l0.69,2.25
		c0.06,0.18,0.25,0.28,0.43,0.23l3.15-0.97c0.18-0.06,0.28-0.25,0.23-0.43L6.57,2.06z M5.83,4.38l-0.7-0.24L4.69,4.73L4.7,4L4,3.76
		l0.7-0.22L4.71,2.8l0.43,0.6l0.7-0.22L5.4,3.78L5.83,4.38z"/>
</g>
</svg>
